<svg viewBox="0 0 24 24" xmlns="http://www.w3.org/2000/svg">
<path d="M5.14743 21.0116L5.14799 21.0083L6.17799 14.9783L6.22228 14.7191L6.03374 14.5357L1.65374 10.2757L1.65257 10.2745C1.58506 10.2093 1.53728 10.1264 1.51469 10.0353C1.49211 9.94419 1.49562 9.84857 1.52483 9.75936C1.55404 9.67016 1.60778 9.59098 1.67988 9.53088C1.75199 9.47079 1.83956 9.4322 1.93257 9.41954L1.93257 9.41956L1.9371 9.4189L7.9871 8.5389L8.24739 8.50104L8.36365 8.26509L11.0636 2.78509L11.0637 2.7851L11.0651 2.78205C11.1061 2.69752 11.17 2.62623 11.2496 2.57634C11.3292 2.52646 11.4212 2.5 11.5151 2.5C11.6091 2.5 11.7011 2.52646 11.7807 2.57634C11.8603 2.62623 11.9242 2.69752 11.9651 2.78205L11.9651 2.78206L11.9666 2.78509L14.6666 8.26509L14.7829 8.50111L15.0433 8.53892L21.0989 9.41826C21.0995 9.41836 21.1001 9.41845 21.1007 9.41855C21.1916 9.43291 21.2768 9.47209 21.3468 9.53177C21.4174 9.59185 21.4698 9.67035 21.4984 9.75851C21.5269 9.84666 21.5303 9.94101 21.5084 10.031C21.4865 10.1206 21.4403 10.2024 21.3749 10.2673C21.3745 10.2676 21.3742 10.2679 21.3739 10.2683L16.9961 14.5361L16.8077 14.7198L16.8524 14.9791L17.8924 21.0091L17.8924 21.0091L17.8934 21.0145C17.9104 21.1073 17.9009 21.203 17.8659 21.2906C17.8308 21.3782 17.7717 21.4541 17.6954 21.5095C17.619 21.565 17.5286 21.5977 17.4344 21.6038C17.3403 21.61 17.2463 21.5895 17.1634 21.5445L17.1634 21.5445L17.1585 21.5419L11.7585 18.6919L11.5256 18.569L11.2924 18.6916L5.87243 21.5416C5.78962 21.5851 5.69626 21.6045 5.60296 21.5977C5.50966 21.5908 5.42016 21.5579 5.34464 21.5027C5.26911 21.4475 5.21059 21.3722 5.17573 21.2853C5.14087 21.1985 5.13106 21.1037 5.14743 21.0116Z" />
</svg>
